<?xml version="1.0" encoding="utf-8"?>
<!-- Generator: Adobe Illustrator 23.0.1, SVG Export Plug-In . SVG Version: 6.00 Build 0)  -->
<svg version="1.1" id="Layer_1" xmlns="http://www.w3.org/2000/svg" xmlns:xlink="http://www.w3.org/1999/xlink" x="0px" y="0px"
	 viewBox="0 0 139 108" style="enable-background:new 0 0 139 108;" xml:space="preserve">
<style type="text/css">
	.st0{fill:#F37125;}
	.st1{fill:#F37125;fill-opacity:0.65;}
</style>
<title>icn_fluxo_quote</title>
<desc>Created with Sketch.</desc>
<g id="Page-1">
	<g id="Artboard" transform="translate(-4.000000, -21.000000)">
		<g id="icn_fluxo_quote" transform="translate(4.000000, 21.000000)">
			<path id="_x201C_" class="st0" d="M58.4,0.5C16.2,3.6,0,27.2,0,58.9v36.6c0,6.8,5.6,12.4,12.4,12.4H46c6.8,0,12.4-5.6,12.4-12.4
				V65.1c0-6.8-5.6-12.4-12.4-12.4h-6.8c0-15.5,0.6-23,19.3-26.1V0.5z"/>
			<path id="Path" class="st1" d="M138,0.5C95.7,3.6,79.6,27.2,79.6,58.9v36.6c0,6.8,5.6,12.4,12.4,12.4h33.6
				c6.8,0,12.4-5.6,12.4-12.4V65.1c0-6.8-5.6-12.4-12.4-12.4h-6.8c0-15.5,0.6-23,19.3-26.1V0.5z"/>
		</g>
	</g>
</g>
</svg>
