<?xml version="1.0" encoding="utf-8"?>
<svg viewBox="89.333 103 1032.167 240" width="1032.167" height="240" xmlns="http://www.w3.org/2000/svg">
  <defs>
    <style type="text/css">
	.st0{fill:#fff;}
	.st1{fill:#fff;}
	.st2{fill:#F37125;}
</style>
  </defs>
  <g>
    <g>
      <polygon class="st0" points="1046.9,132.1 1052.1,122.7 1061.5,117.6 1052.1,112.4 1046.9,103 1041.8,112.4 1032.4,117.6 &#10;&#9;&#9;&#9;1041.8,122.7 &#9;&#9;"/>
      <path class="st0" d="M1103.4,150.3l-9.9-18.1l-9.9,18.1l-18.1,9.9l18.1,9.9l9.9,18.1l9.9-18.1l18.1-9.9L1103.4,150.3z M1097,163.8 l-3.6,6.6l-3.6-6.6l-6.6-3.6l6.6-3.6l3.6-6.6l3.6,6.6l6.6,3.6L1097,163.8z"/>
      <polygon class="st0" points="1018.7,150.9 1003,179.6 974.3,195.2 1003,210.9 1018.7,239.6 1034.3,210.9 1063,195.2 1034.3,179.6 &#10;&#9;&#9;&#9;&#9;&#9;"/>
    </g>
    <path class="st1" d="M412.5,302.3c-2.7,2.2-5.9,3.8-9.8,4.9c-3.8,1.1-7.9,1.6-12.1,1.6c-10.7,0-19-2.8-24.8-8.4 c-5.8-5.6-8.8-13.7-8.8-24.4v-46.9h-16V211h16v-22.2h22.8V211h26.1v18.2h-26.1v46.3c0,4.7,1.2,8.4,3.5,10.8c2.3,2.5,5.7,3.7,10,3.7 c5.1,0,9.4-1.3,12.8-4L412.5,302.3z"/>
    <path class="st1" d="M501.4,219.5c7.6,6.9,11.4,17.2,11.4,31.1v57.1h-21.5v-11.9c-2.8,4.3-6.8,7.5-11.9,9.8 c-5.2,2.2-11.4,3.4-18.7,3.4s-13.7-1.2-19.1-3.7c-5.5-2.5-9.7-6-12.7-10.4c-3-4.4-4.5-9.4-4.5-15c0-8.8,3.3-15.8,9.8-21.1 c6.5-5.3,16.7-7.9,30.7-7.9H490v-1.5c0-6.8-2-12-6.1-15.7c-4.1-3.6-10.1-5.5-18.1-5.5c-5.5,0-10.8,0.9-16.1,2.6 c-5.3,1.7-9.8,4.1-13.4,7.1l-8.9-16.6c5.1-3.9,11.2-6.9,18.4-8.9c7.2-2.1,14.8-3.1,22.8-3.1C482.8,209.2,493.8,212.6,501.4,219.5z M480.6,288.4c4.4-2.6,7.6-6.3,9.4-11.2v-11.3h-23.5c-13.1,0-19.7,4.3-19.7,12.9c0,4.1,1.6,7.4,4.9,9.8c3.3,2.4,7.8,3.6,13.7,3.6 C471.1,292.3,476.1,291,480.6,288.4z"/>
    <path class="st1" d="M598.3,209.2v21.7c-1.9-0.4-3.7-0.5-5.3-0.5c-8.9,0-15.8,2.6-20.8,7.7c-5,5.2-7.5,12.6-7.5,22.3v47.2h-22.8 v-97.4h21.7v14.2C570.2,214.3,581.7,209.2,598.3,209.2z"/>
    <path class="st2" d="M736.1,307.6l-0.2-84.6L694,293h-10.6l-41.9-68.9v83.5h-22.6V180h19.5l50.7,84.6l49.8-84.6h19.5l0.2,127.6 H736.1z"/>
    <path class="st2" d="M860.9,219.5c7.6,6.9,11.4,17.2,11.4,31.1v57.1h-21.5v-11.9c-2.8,4.3-6.8,7.5-11.9,9.8 c-5.2,2.2-11.4,3.4-18.7,3.4s-13.7-1.2-19.1-3.7c-5.5-2.5-9.7-6-12.7-10.4c-3-4.4-4.5-9.4-4.5-15c0-8.8,3.3-15.8,9.8-21.1 c6.5-5.3,16.7-7.9,30.7-7.9h25.2v-1.5c0-6.8-2-12-6.1-15.7c-4.1-3.6-10.1-5.5-18.1-5.5c-5.5,0-10.8,0.9-16.1,2.6 c-5.3,1.7-9.8,4.1-13.4,7.1l-8.9-16.6c5.1-3.9,11.2-6.9,18.4-8.9c7.2-2.1,14.8-3.1,22.8-3.1C842.3,209.2,853.3,212.6,860.9,219.5z M840.1,288.4c4.4-2.6,7.6-6.3,9.4-11.2v-11.3H826c-13.1,0-19.7,4.3-19.7,12.9c0,4.1,1.6,7.4,4.9,9.8c3.3,2.4,7.8,3.6,13.7,3.6 C830.6,292.3,835.7,291,840.1,288.4z"/>
    <path class="st2" d="M980.9,215.4c7.5,4.1,13.3,10,17.6,17.5c4.3,7.5,6.4,16.2,6.4,26.1c0,9.8-2.1,18.6-6.4,26.2 c-4.3,7.6-10.1,13.5-17.6,17.6c-7.5,4.1-16,6.2-25.4,6.2c-13.1,0-23.5-4.4-31.2-13.1V343h-22.8V210.3h21.7V223 c3.8-4.6,8.4-8.1,13.9-10.4c5.5-2.3,11.6-3.5,18.3-3.5C964.9,209.2,973.4,211.2,980.9,215.4z M973.6,281c5.4-5.6,8.1-12.9,8.1-22.1 c0-9.1-2.7-16.5-8.1-22.1c-5.4-5.6-12.3-8.4-20.7-8.4c-5.5,0-10.4,1.2-14.8,3.7c-4.4,2.5-7.8,6-10.4,10.7c-2.6,4.6-3.8,10-3.8,16 c0,6.1,1.3,11.4,3.8,16c2.6,4.6,6,8.2,10.4,10.7c4.4,2.5,9.3,3.7,14.8,3.7C961.3,289.4,968.2,286.6,973.6,281z"/>
    <path class="st1" d="M326.1,251.8c-4.3-4.9-9.5-8.5-15.6-10.8c-6.1-2.4-13.9-4.6-23.3-6.8c-6.9-1.7-12.4-3.2-16.4-4.6 c-4-1.3-7.3-3.2-9.9-5.5c-2.6-2.3-3.9-5.3-3.9-8.9c0-5.2,2.3-9.4,6.8-12.6c4.6-3.2,11.5-4.7,20.9-4.7c5.7,0,11.6,0.9,17.7,2.6 c6.1,1.7,11.9,4.2,17.5,7.5l7.5-18.4c-5.5-3.6-12-6.4-19.5-8.4c-7.5-1.9-15.2-2.9-23-2.9c-11.2,0-20.6,1.7-28.4,5.1 c-7.7,3.4-13.5,8-17.3,13.8c-3.8,5.8-5.7,12.2-5.7,19.2c0,8.4,2.2,15,6.5,20c4.3,4.9,9.5,8.5,15.5,10.8c6,2.3,13.9,4.6,23.6,6.9 c6.9,1.7,12.4,3.2,16.4,4.6c4,1.3,7.3,3.2,9.9,5.6c2.6,2.4,3.9,5.4,3.9,9c0,5-2.3,9-7,12c-4.7,3-11.8,4.6-21.2,4.6 c-7.7,0-15.3-1.3-22.9-3.9c-7.5-2.6-13.9-5.9-19.1-10c0.7,2.7,0.7,5.6,0,8.3c-1.1,4.1-3.8,7.5-7.5,9.6c-0.3,0.2-0.5,0.3-0.8,0.4 l0,0c5.3,4.6,12.6,8.3,21.8,11.1c9.2,2.8,18.7,4.2,28.5,4.2c11.2,0,20.7-1.7,28.4-5.1c7.8-3.4,13.6-8,17.4-13.7 c3.8-5.7,5.7-12.1,5.7-19.1C332.6,263.3,330.5,256.7,326.1,251.8z"/>
    <g>
      <path class="st2" d="M225,141.3c-2.7,1.5-4.6,4-5.4,7c-0.8,3-0.4,6.1,1.1,8.8c2.1,3.7,6.1,5.9,10.1,5.9c1.9,0,3.9-0.5,5.7-1.5 c5.6-3.2,7.5-10.2,4.3-15.8C237.7,140,230.6,138.1,225,141.3z"/>
      <path class="st2" d="M265.1,133.9c-4.1,2.3-5.5,7.5-3.2,11.6c1.1,2,2.9,3.4,5.1,4c0.7,0.2,1.5,0.3,2.3,0.3c1.5,0,2.9-0.4,4.2-1.1 c4.1-2.3,5.5-7.5,3.2-11.6C274.4,133.1,269.2,131.6,265.1,133.9z"/>
      <path class="st2" d="M310,148c-1.7-3-5.4-4-8.4-2.3c-3,1.7-4,5.4-2.3,8.4c0.8,1.4,2.1,2.5,3.7,2.9c0.5,0.2,1.1,0.2,1.6,0.2 c1.1,0,2.1-0.3,3-0.8c1.4-0.8,2.5-2.1,2.9-3.7C311,151.1,310.8,149.4,310,148z"/>
      <path class="st2" d="M228.2,269.4c-2.9-5.1-8.1-7.9-13.6-8l-6.8-25l-10.5,2.9l7,25.6c-2.6,2.1-4.5,4.9-5.4,8.2 c-0.6,2.3-0.7,4.6-0.3,6.9l-39.5,22.5c-1.8-1.5-3.8-2.6-6.1-3.2c-4.1-1.1-8.4-0.6-12.1,1.5c-3.7,2.1-6.4,5.5-7.5,9.6 c-1.1,4.1-0.6,8.4,1.5,12.1c2.1,3.7,5.5,6.4,9.6,7.5c1.4,0.4,2.8,0.6,4.2,0.6c2.7,0,5.4-0.7,7.8-2.1c3.7-2.1,6.4-5.5,7.5-9.6 c0.6-2.3,0.7-4.6,0.3-6.9l39.6-22.5c2.9,2.5,6.6,3.8,10.3,3.8c2.7,0,5.4-0.7,7.8-2.1c3.7-2.1,6.4-5.5,7.5-9.6 C230.8,277.4,230.3,273.1,228.2,269.4L228.2,269.4z"/>
      <rect x="120.1" y="236.3" transform="matrix(0.8693 -0.4942 0.4942 0.8693 -100.0604 104.9823)" class="st2" width="56.8" height="10.8"/>
      <path class="st2" d="M138,295.1l-18.7-18.3c0.5-1,1-2.1,1.3-3.2c1.1-4.1,0.6-8.4-1.5-12.1v0c-4.3-7.6-14.1-10.3-21.7-6 c-3.7,2.1-6.4,5.5-7.5,9.6c-1.1,4.1-0.6,8.4,1.5,12.1c2.1,3.7,5.5,6.4,9.6,7.5c1.4,0.4,2.8,0.6,4.2,0.6c2.1,0,4.1-0.4,6-1.2 l19.1,18.8L138,295.1z"/>
      <path class="st2" d="M195.1,201c-1-0.1-2.1-0.2-3.1-0.1c-4.2,0.3-8.1,2.2-10.9,5.4c-2.8,3.2-4.2,7.3-3.9,11.6 c0.3,4.2,2.2,8.1,5.4,10.9c3.2,2.8,7.3,4.2,11.6,3.9c1.5-0.1,2.9-0.4,4.2-0.9c2.6-0.9,4.9-2.5,6.7-4.6c5.4-6.1,5.1-15.3-0.2-21.2 l12.1-35.3l-10.3-3.5L195.1,201z"/>
    </g>
  </g>
</svg>